<svg id="Layer_1" data-name="Layer 1" xmlns="http://www.w3.org/2000/svg" viewBox="0 0 2692.35 2084.46"><defs><style>.cls-1{fill:#fff;}</style></defs><title>Contact</title><path class="cls-1" d="M1238.12,1442.23c60.53,0,113-20,157.54-59.43L632.86,620c-18.3,13.1-36,25.85-52.81,38q-85.61,63.09-139,98.38t-142,72.13q-88.7,36.86-165.29,36.8h-3q-76.68,0-165.3-36.8t-142-72.13q-53.35-35.26-139-98.38c-15.91-11.67-33.56-24.47-52.66-38.18l-762.95,763c44.59,39.46,97.05,59.43,157.58,59.43Z" transform="translate(1213.83 642.23)"/><path class="cls-1" d="M-1031.09,139.61q-85.63-57.07-151.78-130.73v1160.6l672.33-672.33Q-712.31,356.26-1031.09,139.61Z" transform="translate(1213.83 642.23)"/><path class="cls-1" d="M1297.3,139.61q-307,207.78-521.84,357.81l672.06,672.07V8.88Q1382.9,81,1297.3,139.61Z" transform="translate(1213.83 642.23)"/><path class="cls-1" d="M1238.12-642.23H-973.46q-115.73,0-178,78.1t-62.34,195.34q0,94.62,82.61,205.1T-955.43,9.81q51.07,36.09,308,214.11c92.47,64.07,172.87,119.92,242,168.13,58.89,41,109.69,76.59,151.64,106.08,4.8,3.38,12.37,8.79,22.43,16,10.82,7.78,24.53,17.65,41.43,29.86q48.82,35.31,81.13,57.1t78.14,48.83q45.84,27,86.4,40.58T130.87,704h3q34.55,0,75.11-13.52t86.4-40.58q45.81-27.05,78.15-48.83T454.65,544c16.88-12.21,30.58-22.08,41.42-29.83,10-7.21,17.61-12.59,22.45-16,32.68-22.74,83.59-58.13,152-105.67Q857.42,262.65,1221.68,9.81,1331.36-66.78,1405-175t73.55-226.85q0-99.16-71.34-169.8T1238.12-642.23Z" transform="translate(1213.83 642.23)"/></svg>